<svg xmlns="http://www.w3.org/2000/svg" width="129" height="158" viewBox="0 0 129 158" fill="none"><path d="M61.0987 29.1515C61.4691 30.8572 61.33 35.1091 60.6814 41.9073C60.0328 48.7055 59.0111 56.7213 57.6164 65.9548C56.0864 75.2176 54.184 85.0484 51.9091 95.4473C49.6342 105.846 47.1233 115.484 44.3764 124.362C41.6295 133.24 38.7148 140.692 35.6323 146.72C32.4482 152.932 29.1652 156.405 25.7831 157.14C24.1598 157.492 22.0127 157.39 19.3419 156.834C16.6712 156.277 14.0684 155.381 11.5335 154.145C8.89696 153.094 6.54816 151.737 4.48704 150.074C2.4596 148.565 1.24383 146.881 0.839747 145.02C0.503014 143.47 1.08163 139.285 2.57558 132.465C3.96794 125.83 5.63262 117.188 7.56961 106.537C9.54027 96.0423 11.4616 84.0153 13.3336 70.4565C15.2056 56.8976 16.3344 42.5259 16.7201 27.3414C16.8583 24.0639 17.4694 21.3332 18.5535 19.1493C19.6711 17.1205 21.5151 15.827 24.0855 15.2688C26.5205 14.74 29.6822 14.6217 33.5705 14.914C37.4924 15.3613 41.4141 16.1334 45.3355 17.2303C49.1552 18.5116 52.6197 20.1137 55.7288 22.0365C58.7026 23.9887 60.4925 26.3604 61.0987 29.1515ZM128.062 14.6096C128.433 16.3153 128.294 20.5672 127.645 27.3654C126.997 34.1636 125.975 42.1794 124.58 51.4129C123.05 60.6757 121.148 70.5065 118.873 80.9054C116.598 91.3042 114.087 100.942 111.34 109.82C108.593 118.698 105.679 126.15 102.596 132.178C99.412 138.39 96.129 141.864 92.747 142.598C91.1236 142.951 88.9765 142.848 86.3058 142.292C83.635 141.735 81.0322 140.839 78.4973 139.603C75.8608 138.552 73.512 137.195 71.4509 135.532C69.4234 134.024 68.2077 132.339 67.8036 130.478C67.4668 128.928 68.0455 124.743 69.5394 117.923C70.9318 111.288 72.5964 102.646 74.5334 91.9955C76.5041 81.5004 78.4254 69.4734 80.2974 55.9146C82.1694 42.3557 83.2983 27.984 83.6839 12.7995C83.8222 9.52199 84.4333 6.79129 85.5173 4.60739C86.6349 2.57856 88.479 1.28506 91.0493 0.726884C93.4843 0.198087 96.646 0.079815 100.534 0.372039C104.456 0.819339 108.378 1.59145 112.299 2.68838C116.119 3.96973 119.583 5.57181 122.693 7.49463C125.666 9.44682 127.456 11.8185 128.062 14.6096Z" fill="#52C1FF" fill-opacity="0.6"></path></svg>