<?xml version="1.0" encoding="UTF-8"?>
<svg xmlns="http://www.w3.org/2000/svg" width="42" height="43" viewBox="0 0 42 43" fill="none">
  <path d="M0 21.3C0 33.0657 9.18427 42.6 20.5181 42.6V0C9.18427 0 0 9.53428 0 21.3Z" fill="#FFB140"></path>
  <path d="M20.5161 0V42.5493C31.8499 42.5493 41.0342 33.015 41.0342 21.2493C40.9853 9.53429 31.801 0 20.5161 0Z" fill="#52C1FF"></path>
  <path d="M20.5169 39.2027C30.041 39.2027 37.7618 31.1877 37.7618 21.3006C37.7618 11.4135 30.041 3.39844 20.5169 3.39844C10.9928 3.39844 3.27197 11.4135 3.27197 21.3006C3.27197 31.1877 10.9928 39.2027 20.5169 39.2027Z" fill="#001D67"></path>
  <path d="M14.5107 13.8955H10.6025V17.2427H14.4619C15.5366 17.2427 16.2694 18.1555 16.2694 19.2712V20.1334C15.8786 19.8291 15.1947 19.7784 14.6084 19.7784H11.6773V22.9734H14.3642C16.074 22.9734 16.2694 24.0891 16.2694 24.8498V29.3127H19.6891V18.9669C19.6891 15.4677 17.1976 13.8955 14.5107 13.8955Z" fill="white"></path>
  <path d="M26.4782 13.8955H30.3864V17.2427H26.527C25.4523 17.2427 24.7195 18.1555 24.7195 19.2712V20.1334C25.1103 19.8291 25.7942 19.7784 26.3805 19.7784H29.3116V22.9734H26.6247C24.9149 22.9734 24.7195 24.0891 24.7195 24.8498V29.3127H21.2998V18.9669C21.2998 15.4677 23.7913 13.8955 26.4782 13.8955Z" fill="white"></path>
</svg>
