<svg width="14" height="14" viewBox="0 0 14 14" fill="none" xmlns="http://www.w3.org/2000/svg" style="position: absolute; right: 0px; top: 0px; display: none; transform: translate(30%, -30%);"><g clip-path="url(#clip0_34242_2353)"><path d="M7 14C5.14348 14 3.36301 13.2625 2.05025 11.9497C0.737498 10.637 0 8.85652 0 7C0 5.14348 0.737498 3.36301 2.05025 2.05025C3.36301 0.737498 5.14348 0 7 0C8.85652 0 10.637 0.737498 11.9497 2.05025C13.2625 3.36301 14 5.14348 14 7C14 8.85652 13.2625 10.637 11.9497 11.9497C10.637 13.2625 8.85652 14 7 14Z" fill="#B1B1B1" fill-opacity="0.32"></path><mask id="mask0_34242_2353" style="mask-type: alpha;" maskUnits="userSpaceOnUse" x="1" y="1" width="12" height="12"><rect x="1" y="1" width="12" height="12" fill="#D9D9D9"></rect></mask><g mask="url(#mask0_34242_2353)"><path d="M7.86447 3.67324H6.13622V4.72999L4.80409 3.39199C4.75018 3.33699 4.70972 3.27808 4.68272 3.21524C4.65572 3.15241 4.64222 3.09533 4.64222 3.04399C4.64222 2.93141 4.68193 2.8352 4.76134 2.75537C4.84076 2.67562 4.94514 2.63574 5.07447 2.63574H8.98322C9.12864 2.63574 9.25147 2.68883 9.35172 2.79499C9.45189 2.90124 9.50197 3.04578 9.50197 3.22862C9.50197 3.35203 9.46122 3.46245 9.37972 3.55987C9.29822 3.65737 9.18897 3.69516 9.05197 3.67324H8.90197V6.36774C8.90197 6.51316 8.85214 6.63599 8.75247 6.73624C8.65272 6.83641 8.53051 6.88649 8.38585 6.88649C8.24118 6.88649 8.11809 6.83641 8.01659 6.73624C7.91518 6.63599 7.86447 6.51316 7.86447 6.36774V3.67324ZM6.4816 11.974V9.13599H4.57509C4.36193 9.13599 4.19043 9.06703 4.06059 8.92912C3.93076 8.79112 3.86584 8.62983 3.86584 8.44524C3.86584 8.35591 3.88509 8.26499 3.92359 8.17249C3.96209 8.08008 4.01984 7.99437 4.09684 7.91537L5.09872 6.89549V6.36149L2.32422 3.58412C2.22664 3.48645 2.1788 3.37678 2.18072 3.25512C2.18272 3.13345 2.23155 3.02483 2.32722 2.92924C2.42489 2.83158 2.53614 2.78274 2.66097 2.78274C2.7858 2.78274 2.89701 2.83158 2.99459 2.92924L10.9898 10.9245C11.0863 11.0209 11.1351 11.13 11.1361 11.2516C11.1371 11.3733 11.0898 11.4839 10.9941 11.5835C10.8984 11.6772 10.7867 11.7235 10.6588 11.7225C10.5311 11.7215 10.4194 11.6732 10.3237 11.5776L7.87909 9.13599L7.51909 9.14199V11.974C7.51909 12.1195 7.46926 12.2423 7.3696 12.3425C7.26985 12.4427 7.14764 12.4927 7.00297 12.4927C6.8583 12.4927 6.73522 12.4427 6.63372 12.3425C6.5323 12.2423 6.4816 12.1195 6.4816 11.974ZM5.35909 8.09849H6.83872L6.08834 7.35124L6.09434 7.35724L5.35909 8.09849Z" fill="white"></path></g></g><defs><clipPath id="clip0_34242_2353"><rect width="14" height="14" fill="white"></rect></clipPath></defs></svg>