<svg style="width: 22px; height: 22px;" width="22" height="22" viewBox="0 0 22 22" fill="none" xmlns="http://www.w3.org/2000/svg"><path d="M16 7.66699H10.375" stroke="#666666" stroke-width="1.4" stroke-linecap="round" stroke-linejoin="round"></path><path d="M11.625 14.333L6 14.333" stroke="#666666" stroke-width="1.4" stroke-linecap="round" stroke-linejoin="round"></path><path d="M14.125 16C15.1605 16 16 15.1605 16 14.125C16 13.0895 15.1605 12.25 14.125 12.25C13.0895 12.25 12.25 13.0895 12.25 14.125C12.25 15.1605 13.0895 16 14.125 16Z" stroke="#666666" stroke-width="1.4" stroke-linecap="round" stroke-linejoin="round"></path><path d="M7.875 9.75C8.91053 9.75 9.75 8.91053 9.75 7.875C9.75 6.83947 8.91053 6 7.875 6C6.83947 6 6 6.83947 6 7.875C6 8.91053 6.83947 9.75 7.875 9.75Z" stroke="#666666" stroke-width="1.4" stroke-linecap="round" stroke-linejoin="round"></path><rect x="3" y="3" width="16" height="16" rx="1.66667" stroke="#666666" stroke-width="1.4"></rect></svg>