<svg class="imt-float-ball-loading" hidden="true" style="margin: 9px;" width="19" height="19" viewBox="0 0 19 19" fill="none" xmlns="http://www.w3.org/2000/svg"><path d="M9.42859 0C9.84288 0 10.1929 0.387143 10.1929 0.847143V3.99429C10.1929 4.45429 9.84431 4.84143 9.42859 4.84143C9.01431 4.84143 8.66431 4.45571 8.66431 3.99429V0.847143C8.66431 0.387143 9.01288 0 9.42859 0Z" fill="#E9E9E9"></path><path d="M14.1301 1.38877C14.5158 1.62591 14.6301 2.12163 14.4258 2.52305L12.9515 5.19448C12.901 5.28714 12.8325 5.36876 12.75 5.43455C12.6675 5.50035 12.5727 5.54898 12.4712 5.5776C12.3696 5.60621 12.2634 5.61424 12.1586 5.60119C12.0539 5.58814 11.9529 5.55429 11.8615 5.50163C11.6787 5.38432 11.5468 5.20237 11.4923 4.9921C11.4377 4.78184 11.4645 4.55874 11.5672 4.36734L13.0415 1.69591C13.2686 1.29448 13.7443 1.15305 14.1301 1.38877Z" fill="#989697"></path><path d="M17.4685 4.75707C17.5813 4.95451 17.6123 5.18824 17.5549 5.40825C17.4975 5.62826 17.3563 5.81705 17.1614 5.93422L14.4971 7.52564C14.0971 7.76993 13.6014 7.62422 13.3657 7.20707C13.2532 7.00994 13.2222 6.77667 13.2793 6.55702C13.3365 6.33737 13.4771 6.14874 13.6714 6.03136L16.3357 4.43993C16.7371 4.21993 17.2557 4.34136 17.4685 4.7585V4.75707Z" fill="#9B999A"></path><path d="M18.8572 9.42835C18.8572 9.84263 18.47 10.1926 18.01 10.1926H14.8629C14.4029 10.1926 14.0157 9.84406 14.0157 9.42835C14.0157 9.01406 14.4029 8.66406 14.8629 8.66406H18.01C18.47 8.66406 18.8572 9.01263 18.8572 9.42835Z" fill="#A3A1A2"></path><path d="M17.4686 14.1303C17.3515 14.3134 17.1697 14.4455 16.9594 14.5003C16.7491 14.5552 16.5259 14.5286 16.3343 14.426L13.6629 12.9517C13.5702 12.9012 13.4886 12.8327 13.4228 12.7503C13.357 12.6678 13.3084 12.573 13.2798 12.4714C13.2512 12.3698 13.2431 12.2636 13.2562 12.1589C13.2692 12.0542 13.3031 11.9532 13.3558 11.8617C13.4731 11.6789 13.655 11.547 13.8653 11.4925C14.0755 11.4379 14.2986 11.4647 14.49 11.5674L17.1615 13.0417C17.5629 13.2689 17.7043 13.7446 17.4686 14.1303Z" fill="#ABA9AA"></path><path opacity="0.7" d="M14.1 17.4686C13.9026 17.5814 13.6689 17.6124 13.4489 17.555C13.2288 17.4976 13.04 17.3564 12.9229 17.1615L11.3315 14.4972C11.0872 14.0972 11.2329 13.6015 11.65 13.3658C11.8472 13.2533 12.0804 13.2224 12.3001 13.2795C12.5197 13.3366 12.7084 13.4773 12.8257 13.6715L14.4172 16.3358C14.6372 16.7372 14.5157 17.2558 14.0986 17.4686H14.1Z" fill="#B2B2B2"></path><path opacity="0.6" d="M9.42859 18.8571C9.01431 18.8571 8.66431 18.4699 8.66431 18.0099V14.8628C8.66431 14.4028 9.01288 14.0156 9.42859 14.0156C9.84288 14.0156 10.1929 14.4028 10.1929 14.8628V18.0099C10.1929 18.4699 9.84431 18.8571 9.42859 18.8571Z" fill="#BAB8B9"></path><path opacity="0.5" d="M4.72717 17.4685C4.5441 17.3514 4.41195 17.1696 4.35713 16.9593C4.30231 16.749 4.32885 16.5258 4.43145 16.3342L5.90574 13.6628C5.95622 13.5701 6.02472 13.4885 6.1072 13.4227C6.18969 13.3569 6.2845 13.3083 6.38606 13.2797C6.48762 13.251 6.59387 13.243 6.69857 13.2561C6.80327 13.2691 6.90431 13.303 6.99574 13.3556C7.38145 13.5914 7.49431 14.0885 7.29002 14.4899L5.81574 17.1614C5.5886 17.5628 5.11288 17.7042 4.72717 17.4685Z" fill="#C2C0C1"></path><path opacity="0.4" d="M1.38862 14.1002C1.27584 13.9027 1.24483 13.669 1.30223 13.449C1.35964 13.229 1.50089 13.0402 1.69576 12.923L4.36004 11.3316C4.76004 11.0873 5.25576 11.233 5.49147 11.6502C5.60393 11.8473 5.63491 12.0806 5.5778 12.3002C5.52069 12.5199 5.38 12.7085 5.18576 12.8259L2.52004 14.4173C2.12004 14.6373 1.60004 14.5159 1.38862 14.0987V14.1002Z" fill="#CBCBCB"></path><path d="M0 9.42835C0 9.01406 0.387143 8.66406 0.847143 8.66406H3.99429C4.45429 8.66406 4.84143 9.01263 4.84143 9.42835C4.84143 9.84263 4.45571 10.1926 3.99429 10.1926H0.847143C0.387143 10.1926 0 9.84406 0 9.42835Z" fill="#D2D2D2"></path><path opacity="0.2" d="M1.38852 4.72705C1.50561 4.54398 1.68746 4.41183 1.89774 4.35701C2.10803 4.30219 2.33125 4.32873 2.52281 4.43133L5.19424 5.90562C5.28689 5.9561 5.36851 6.0246 5.43431 6.10708C5.5001 6.18957 5.54874 6.28438 5.57735 6.38594C5.60597 6.48749 5.61399 6.59375 5.60094 6.69845C5.5879 6.80315 5.55405 6.90419 5.50138 6.99562C5.38407 7.17844 5.20212 7.31029 4.99186 7.36484C4.78159 7.4194 4.55849 7.39263 4.3671 7.2899L1.69567 5.81562C1.29424 5.58847 1.15281 5.11276 1.38852 4.72705Z" fill="#DADADA"></path><path d="M4.75719 1.38849C4.95463 1.27571 5.18837 1.24471 5.40838 1.30211C5.62838 1.35952 5.81718 1.50077 5.93434 1.69564L7.52577 4.35992C7.77005 4.75992 7.62434 5.25564 7.20719 5.49135C7.01006 5.60381 6.77679 5.63479 6.55714 5.57768C6.33749 5.52056 6.14886 5.37988 6.03148 5.18564L4.44005 2.51992C4.22005 2.11992 4.34148 1.59992 4.75862 1.38849H4.75719Z" fill="#E2E2E2"></path></svg>