<?xml version="1.0" encoding="UTF-8"?>
<svg xmlns="http://www.w3.org/2000/svg" width="277" height="43" viewBox="0 0 277 43" fill="none">
  <path d="M0 21.3C0 33.0657 9.18427 42.6 20.5181 42.6V0C9.18427 0 0 9.53428 0 21.3Z" fill="#FFB140"></path>
  <path d="M20.5161 0V42.5493C31.8499 42.5493 41.0342 33.015 41.0342 21.2493C40.9853 9.53429 31.801 0 20.5161 0Z" fill="#52C1FF"></path>
  <path d="M20.5169 39.2027C30.041 39.2027 37.7618 31.1877 37.7618 21.3006C37.7618 11.4135 30.041 3.39844 20.5169 3.39844C10.9928 3.39844 3.27197 11.4135 3.27197 21.3006C3.27197 31.1877 10.9928 39.2027 20.5169 39.2027Z" fill="#001D67"></path>
  <path d="M14.5107 13.8955H10.6025V17.2427H14.4619C15.5366 17.2427 16.2694 18.1555 16.2694 19.2712V20.1334C15.8786 19.8291 15.1947 19.7784 14.6084 19.7784H11.6773V22.9734H14.3642C16.074 22.9734 16.2694 24.0891 16.2694 24.8498V29.3127H19.6891V18.9669C19.6891 15.4677 17.1976 13.8955 14.5107 13.8955Z" fill="white"></path>
  <path d="M26.4782 13.8955H30.3864V17.2427H26.527C25.4523 17.2427 24.7195 18.1555 24.7195 19.2712V20.1334C25.1103 19.8291 25.7942 19.7784 26.3805 19.7784H29.3116V22.9734H26.6247C24.9149 22.9734 24.7195 24.0891 24.7195 24.8498V29.3127H21.2998V18.9669C21.2998 15.4677 23.7913 13.8955 26.4782 13.8955Z" fill="white"></path>
  <path d="M110.701 6.08569H102.347C96.9736 6.08569 94.1401 10.1936 94.1401 13.9971V36.4636H100.589V15.4171C100.589 11.9178 102.982 11.5628 104.057 11.5628H109.089C110.115 11.5628 112.558 11.9178 112.558 15.4171V36.4636H119.006V13.9971C118.908 10.1936 116.075 6.08569 110.701 6.08569Z" fill="#001D67"></path>
  <path d="M156.231 16.1271V36.4636H162.68V23.43H172.402V17.9528H162.68V16.1271C162.68 13.3378 164.194 11.6136 167.272 11.6136H175.284V6.08569H167.272C160.335 6.08569 156.231 9.63569 156.231 16.1271Z" fill="#001D67"></path>
  <path d="M57.2568 16.1271V36.4636H63.7054V23.43H73.427V17.9528H63.7054V16.1271C63.7054 13.3378 65.2198 11.6136 68.2975 11.6136H76.3093V6.08569H68.2975C61.3604 6.08569 57.2568 9.63569 57.2568 16.1271Z" fill="#001D67"></path>
  <path d="M215.146 6.08569H214.315C211.824 6.08569 210.505 6.64355 210.505 9.88926V10.9543V36.5143H216.905V6.08569H215.146Z" fill="#001D67"></path>
  <path d="M86.1766 6.08569H85.3461C82.8547 6.08569 81.5356 6.64355 81.5356 9.88926V10.9543V36.5143H87.9353V6.08569H86.4697H86.1766Z" fill="#001D67"></path>
  <path d="M141.82 6.08569H133.466C128.092 6.08569 125.259 10.1936 125.259 13.9971V36.4636H131.707V27.9943H143.627V36.4636H150.076V13.9971C150.027 10.1936 147.194 6.08569 141.82 6.08569ZM143.627 22.4157H131.707V15.4171C131.707 11.9178 134.101 11.5628 135.176 11.5628H140.208C141.234 11.5628 143.676 11.9178 143.676 15.4171V22.4157H143.627Z" fill="#001D67"></path>
  <path d="M268.736 6.08569H260.383C255.009 6.08569 252.175 10.1936 252.175 13.9971V36.4636H258.624V27.9943H270.544V36.4636H276.992V13.9971C276.944 10.1936 274.159 6.08569 268.736 6.08569ZM270.544 22.4157H258.624V15.4171C258.624 11.9178 261.018 11.5628 262.092 11.5628H267.124C268.15 11.5628 270.593 11.9178 270.593 15.4171V22.4157H270.544Z" fill="#001D67"></path>
  <path d="M198.389 26.4216C202.688 25.6608 204.691 21.5023 204.691 18.6623V13.9459C204.691 10.1423 201.858 6.03442 196.484 6.03442H188.325C182.952 6.03442 180.118 10.1423 180.118 13.9459V36.4123H186.567V15.4166C186.567 11.9173 188.814 11.5623 190.035 11.5623H194.872C196.093 11.5623 198.34 11.9173 198.34 15.4166V17.2423C198.389 19.0173 198.096 21.4008 194.676 21.2994H191.843H191.745H190.182V22.618C190.182 24.4944 190.573 25.5087 191.403 26.7766L197.803 36.463H204.691L197.754 26.523L198.389 26.4216Z" fill="#001D67"></path>
  <path d="M238.548 6.08569H231.269C225.895 6.08569 223.062 10.1936 223.062 13.9971V28.5521C223.062 32.3557 225.895 36.4636 231.269 36.4636H238.548C243.922 36.4636 246.755 32.3557 246.755 28.5521V26.8278H240.307V27.0814C240.307 30.5807 237.913 30.9864 236.838 30.9864H232.881C231.855 30.9864 229.413 30.6314 229.413 27.1321V15.4171C229.413 11.9178 231.807 11.5628 232.881 11.5628H236.838C237.864 11.5628 240.307 12.0193 240.307 15.4678V15.7214H246.755V13.9971C246.755 10.1936 243.922 6.08569 238.548 6.08569Z" fill="#001D67"></path>
</svg>
